<svg width="34" height="40" viewBox="0 0 34 40" fill="none" xmlns="http://www.w3.org/2000/svg">
<path d="M33.7716 21.5791C33.7716 31.7413 27.048 40 16.8858 40C6.72361 40 0 31.7413 0 21.5791C3.39184 21.6077 6.69098 22.6896 9.44106 24.6752C12.1911 26.6607 14.2562 29.4518 15.3507 32.6624V18.509H7.67536C6.45398 18.509 5.28263 18.0238 4.41898 17.1602C3.55533 16.2965 3.07014 15.1252 3.07014 13.9038V4.69335C3.07014 4.37116 3.17152 4.05715 3.3599 3.79578C3.54829 3.53441 3.81413 3.33894 4.11978 3.23705C4.42543 3.13517 4.75539 3.13204 5.06292 3.2281C5.37045 3.32417 5.63996 3.51456 5.83327 3.77231L10.5306 9.91259L15.5963 0.702163C15.7355 0.486719 15.9264 0.309578 16.1517 0.186921C16.3769 0.0642639 16.6293 0 16.8858 0C17.1423 0 17.3947 0.0642639 17.6199 0.186921C17.8452 0.309578 18.0361 0.486719 18.1753 0.702163L23.241 9.91259L27.9383 3.77231C28.1316 3.51456 28.4011 3.32417 28.7087 3.2281C29.0162 3.13204 29.3461 3.13517 29.6518 3.23705C29.9574 3.33894 30.2233 3.53441 30.4117 3.79578C30.6001 4.05715 30.7014 4.37116 30.7014 4.69335V13.9038C30.7014 15.1252 30.2162 16.2965 29.3526 17.1602C28.489 18.0238 27.3176 18.509 26.0962 18.509H18.4209V32.6624C19.5153 29.4518 21.5804 26.6607 24.3305 24.6752C27.0806 22.6896 30.3797 21.6077 33.7716 21.5791Z" fill="white"/>
</svg>
