<svg width="40" height="40" viewBox="0 0 40 40" fill="none" xmlns="http://www.w3.org/2000/svg">
<path d="M40 38C40 39.1046 39.1046 40 38 40H2C0.895431 40 0 39.1046 0 38V37.5556C0 36.451 0.895431 35.5556 2 35.5556H38C39.1046 35.5556 40 36.451 40 37.5556V38ZM11.1111 17.5556C11.1111 16.451 10.2157 15.5556 9.11111 15.5556H4.22222C3.11765 15.5556 2.22222 16.451 2.22222 17.5556V31.1111H11.1111V17.5556ZM24.4444 2C24.4444 0.895432 23.549 0 22.4444 0H17.5556C16.451 0 15.5556 0.895431 15.5556 2V31.1111H24.4444V2ZM37.7778 8.66667C37.7778 7.5621 36.8823 6.66667 35.7778 6.66667H30.8889C29.7843 6.66667 28.8889 7.5621 28.8889 8.66667V31.1111H37.7778V8.66667Z" fill="white"/>
</svg>
