<svg width="28" height="30" viewBox="0 0 28 30" fill="none" xmlns="http://www.w3.org/2000/svg">
<path d="M8.01136 23.1818C6.26136 23.1818 4.93182 22.5341 4.02273 21.2386C3.11364 19.9432 2.68182 18.4886 2.72727 16.875L2.11364 15.9545C1.86364 15.5682 1.44909 14.6932 0.87 13.3295C0.29 11.9659 0 10.25 0 8.18182C0 5.84091 0.579546 3.89182 1.73864 2.33455C2.89773 0.778182 4.36364 0 6.13636 0C8.06818 0 9.57364 0.857727 10.6527 2.57318C11.7327 4.28955 12.2727 6.15909 12.2727 8.18182C12.2727 9.5 12.0909 10.7159 11.7273 11.8295C11.3636 12.9432 11.0455 13.8409 10.7727 14.5227L11.0455 14.9659C11.2273 15.2841 11.4773 15.7895 11.7955 16.4823C12.1136 17.1759 12.2727 17.8977 12.2727 18.6477C12.2727 19.9432 11.8695 21.0227 11.0632 21.8864C10.2559 22.75 9.23864 23.1818 8.01136 23.1818ZM4.43182 14.4545L8.18182 13.7045C8.47727 12.9773 8.77864 12.1477 9.08591 11.2159C9.39227 10.2841 9.54545 9.27273 9.54545 8.18182C9.54545 6.81818 9.23273 5.56818 8.60727 4.43182C7.98273 3.29545 7.15909 2.72727 6.13636 2.72727C5.11364 2.72727 4.29 3.29545 3.66545 4.43182C3.04 5.56818 2.72727 6.81818 2.72727 8.18182C2.72727 9.61364 2.92636 10.8805 3.32455 11.9823C3.72182 13.085 4.09091 13.9091 4.43182 14.4545ZM8.01136 20.4545C8.44318 20.4545 8.80682 20.2955 9.10227 19.9773C9.39773 19.6591 9.54545 19.2159 9.54545 18.6477C9.54545 18.2614 9.45455 17.8636 9.27273 17.4545C9.09091 17.0455 8.90909 16.6818 8.72727 16.3636L5.45455 17.0455C5.45455 17.9545 5.65364 18.75 6.05182 19.4318C6.44909 20.1136 7.10227 20.4545 8.01136 20.4545ZM19.2614 30C18.0341 30 17.0168 29.5682 16.2095 28.7045C15.4032 27.8409 15 26.7614 15 25.4659C15 24.7159 15.1591 23.9941 15.4773 23.3005C15.7955 22.6077 16.0455 22.1023 16.2273 21.7841L16.5 21.3409C16.2273 20.6591 15.9091 19.7614 15.5455 18.6477C15.1818 17.5341 15 16.3182 15 15C15 12.9773 15.54 11.1077 16.62 9.39136C17.6991 7.67591 19.2045 6.81818 21.1364 6.81818C22.9091 6.81818 24.375 7.59636 25.5341 9.15273C26.6932 10.71 27.2727 12.6591 27.2727 15C27.2727 17.0682 26.9832 18.7782 26.4041 20.13C25.8241 21.4827 25.4091 22.3523 25.1591 22.7386L24.5455 23.6932C24.5682 25.3068 24.1309 26.7614 23.2336 28.0568C22.3355 29.3523 21.0114 30 19.2614 30ZM22.8409 21.2727C23.1818 20.7273 23.5509 19.9091 23.9482 18.8182C24.3464 17.7273 24.5455 16.4545 24.5455 15C24.5455 13.6364 24.2327 12.3864 23.6073 11.25C22.9827 10.1136 22.1591 9.54545 21.1364 9.54545C20.1136 9.54545 19.29 10.1136 18.6655 11.25C18.04 12.3864 17.7273 13.6364 17.7273 15C17.7273 16.0909 17.8809 17.0964 18.1882 18.0164C18.4945 18.9373 18.7955 19.7727 19.0909 20.5227L22.8409 21.2727ZM19.2614 27.2727C20.1705 27.2727 20.8236 26.9318 21.2209 26.25C21.6191 25.5682 21.8182 24.7727 21.8182 23.8636L18.5455 23.1818C18.3636 23.5 18.1818 23.8636 18 24.2727C17.8182 24.6818 17.7273 25.0795 17.7273 25.4659C17.7273 25.9205 17.8691 26.335 18.1527 26.7095C18.4373 27.085 18.8068 27.2727 19.2614 27.2727Z" fill="white"/>
</svg>
